<mxfile host="app.diagrams.net" modified="2023-05-21T19:28:06.511Z" agent="Mozilla/5.0 (Windows NT 10.0; Win64; x64) AppleWebKit/537.36 (KHTML, like Gecko) Chrome/113.0.0.0 Safari/537.36" etag="nrbYZ66RchGZBUrKZxG4" version="21.3.2" type="device">
  <diagram id="C5RBs43oDa-KdzZeNtuy" name="Page-1">
    <mxGraphModel dx="1560" dy="823" grid="1" gridSize="10" guides="1" tooltips="1" connect="1" arrows="1" fold="1" page="1" pageScale="1" pageWidth="827" pageHeight="1169" math="0" shadow="0">
      <root>
        <mxCell id="WIyWlLk6GJQsqaUBKTNV-0" />
        <mxCell id="WIyWlLk6GJQsqaUBKTNV-1" parent="WIyWlLk6GJQsqaUBKTNV-0" />
        <mxCell id="neSpps4RVSdNw42IRcSt-0" value="Estacionamento" style="swimlane;fontStyle=1;align=center;verticalAlign=top;childLayout=stackLayout;horizontal=1;startSize=26;horizontalStack=0;resizeParent=1;resizeParentMax=0;resizeLast=0;collapsible=1;marginBottom=0;whiteSpace=wrap;html=1;" vertex="1" parent="WIyWlLk6GJQsqaUBKTNV-1">
          <mxGeometry x="120" y="140" width="180" height="260" as="geometry" />
        </mxCell>
        <mxCell id="neSpps4RVSdNw42IRcSt-1" value="&lt;div&gt;- nome: String&lt;/div&gt;&lt;div&gt;- localizacao: String&lt;/div&gt;&lt;div&gt;- lotacaoMaxima: Integer&lt;/div&gt;&lt;div&gt;- lotacaoAtual: Integer&lt;/div&gt;&lt;div&gt;- taxaDeFracao: Double&lt;/div&gt;&lt;div&gt;- taxaDeHora: Double&lt;/div&gt;&lt;div&gt;- taxaDeDiaria: Double&lt;/div&gt;&lt;div&gt;- taxaNoturna: Double&lt;/div&gt;&lt;div&gt;- taxaMensal: Double&lt;/div&gt;&lt;div&gt;- taxaDeEvento: Double&lt;/div&gt;" style="text;strokeColor=none;fillColor=none;align=left;verticalAlign=top;spacingLeft=4;spacingRight=4;overflow=hidden;rotatable=0;points=[[0,0.5],[1,0.5]];portConstraint=eastwest;whiteSpace=wrap;html=1;" vertex="1" parent="neSpps4RVSdNw42IRcSt-0">
          <mxGeometry y="26" width="180" height="154" as="geometry" />
        </mxCell>
        <mxCell id="neSpps4RVSdNw42IRcSt-2" value="" style="line;strokeWidth=1;fillColor=none;align=left;verticalAlign=middle;spacingTop=-1;spacingLeft=3;spacingRight=3;rotatable=0;labelPosition=right;points=[];portConstraint=eastwest;strokeColor=inherit;" vertex="1" parent="neSpps4RVSdNw42IRcSt-0">
          <mxGeometry y="180" width="180" height="8" as="geometry" />
        </mxCell>
        <mxCell id="neSpps4RVSdNw42IRcSt-3" value="&lt;div&gt;+ adicionarVeiculo(): Void&lt;/div&gt;&lt;div&gt;+ removerVeiculo(): Void&lt;/div&gt;&lt;div&gt;+ verificarLotacao(): Boolean&lt;/div&gt;&lt;div&gt;+ calcularTaxa(): Double&lt;/div&gt;" style="text;strokeColor=none;fillColor=none;align=left;verticalAlign=top;spacingLeft=4;spacingRight=4;overflow=hidden;rotatable=0;points=[[0,0.5],[1,0.5]];portConstraint=eastwest;whiteSpace=wrap;html=1;" vertex="1" parent="neSpps4RVSdNw42IRcSt-0">
          <mxGeometry y="188" width="180" height="72" as="geometry" />
        </mxCell>
        <mxCell id="neSpps4RVSdNw42IRcSt-4" value="Veiculo" style="swimlane;fontStyle=1;align=center;verticalAlign=top;childLayout=stackLayout;horizontal=1;startSize=26;horizontalStack=0;resizeParent=1;resizeParentMax=0;resizeLast=0;collapsible=1;marginBottom=0;whiteSpace=wrap;html=1;" vertex="1" parent="WIyWlLk6GJQsqaUBKTNV-1">
          <mxGeometry x="460" y="195" width="186" height="150" as="geometry" />
        </mxCell>
        <mxCell id="neSpps4RVSdNw42IRcSt-5" value="&lt;div&gt;- placa: String&lt;/div&gt;&lt;div&gt;- modelo: String&lt;/div&gt;&lt;div&gt;- horaEntrada: DateTime&lt;/div&gt;&lt;div&gt;- horaSaida: DateTime&lt;/div&gt;" style="text;strokeColor=none;fillColor=none;align=left;verticalAlign=top;spacingLeft=4;spacingRight=4;overflow=hidden;rotatable=0;points=[[0,0.5],[1,0.5]];portConstraint=eastwest;whiteSpace=wrap;html=1;" vertex="1" parent="neSpps4RVSdNw42IRcSt-4">
          <mxGeometry y="26" width="186" height="74" as="geometry" />
        </mxCell>
        <mxCell id="neSpps4RVSdNw42IRcSt-6" value="" style="line;strokeWidth=1;fillColor=none;align=left;verticalAlign=middle;spacingTop=-1;spacingLeft=3;spacingRight=3;rotatable=0;labelPosition=right;points=[];portConstraint=eastwest;strokeColor=inherit;" vertex="1" parent="neSpps4RVSdNw42IRcSt-4">
          <mxGeometry y="100" width="186" height="8" as="geometry" />
        </mxCell>
        <mxCell id="neSpps4RVSdNw42IRcSt-7" value="&lt;div&gt;+ entrarEstacionamento(): Void&lt;/div&gt;&lt;div&gt;+ sairEstacionamento(): Void&lt;/div&gt;" style="text;strokeColor=none;fillColor=none;align=left;verticalAlign=top;spacingLeft=4;spacingRight=4;overflow=hidden;rotatable=0;points=[[0,0.5],[1,0.5]];portConstraint=eastwest;whiteSpace=wrap;html=1;" vertex="1" parent="neSpps4RVSdNw42IRcSt-4">
          <mxGeometry y="108" width="186" height="42" as="geometry" />
        </mxCell>
        <mxCell id="neSpps4RVSdNw42IRcSt-11" value="&lt;br&gt;" style="endArrow=block;endFill=1;html=1;edgeStyle=orthogonalEdgeStyle;align=left;verticalAlign=top;rounded=0;" edge="1" parent="WIyWlLk6GJQsqaUBKTNV-1">
          <mxGeometry x="-1" relative="1" as="geometry">
            <mxPoint x="300" y="269.40999999999997" as="sourcePoint" />
            <mxPoint x="460" y="269.40999999999997" as="targetPoint" />
          </mxGeometry>
        </mxCell>
        <mxCell id="neSpps4RVSdNw42IRcSt-12" value="1" style="edgeLabel;resizable=0;html=1;align=left;verticalAlign=bottom;" connectable="0" vertex="1" parent="neSpps4RVSdNw42IRcSt-11">
          <mxGeometry x="-1" relative="1" as="geometry" />
        </mxCell>
        <mxCell id="neSpps4RVSdNw42IRcSt-13" value="*" style="text;align=center;fontStyle=1;verticalAlign=middle;spacingLeft=3;spacingRight=3;strokeColor=none;rotatable=0;points=[[0,0.5],[1,0.5]];portConstraint=eastwest;html=1;" vertex="1" parent="WIyWlLk6GJQsqaUBKTNV-1">
          <mxGeometry x="440" y="260" width="10" height="10" as="geometry" />
        </mxCell>
      </root>
    </mxGraphModel>
  </diagram>
</mxfile>
